<svg width="227.000000" height="24.000000" viewBox="0 0 227 24" fill="none" xmlns="http://www.w3.org/2000/svg" xmlns:xlink="http://www.w3.org/1999/xlink">
	<desc>
			Created with Pixso.
	</desc>
	<defs/>
	<path id="coffeeroasters" d="M34.6593 23.2397C33.6814 23.7135 32.5405 23.9504 31.2366 23.9504Q29.2968 23.9504 27.7362 23.181L27.7352 23.1805Q27.6311 23.1292 27.5287 23.0744Q26.861 22.7173 26.3084 22.2297Q25.5053 21.5212 24.9453 20.5372Q24 18.876 24 16.4959Q24 14.3689 24.8451 12.6598Q24.9129 12.5228 24.9861 12.3884Q25.4992 11.4466 26.222 10.7106Q26.8881 10.0323 27.7324 9.52892Q27.8161 9.47899 27.9012 9.43142Q29.6043 8.47934 31.8397 8.47934Q33.8444 8.47934 35.2216 9.07438Q36.5989 9.66942 37.3242 10.686Q37.6752 11.178 37.8564 11.7261Q38.0495 12.3105 38.0495 12.9587Q38.0495 14.0671 37.517 14.7748L37.5169 14.7749Q37.4141 14.9114 37.2916 15.0331Q37.1584 15.1652 37.0083 15.2742Q36.3045 15.7851 35.2298 15.7851Q34.0858 15.7851 33.4135 15.222Q33.3004 15.1272 33.2006 15.0165C32.7388 14.5041 32.5079 13.8017 32.5079 12.9091L32.5079 11.8512Q32.5079 11.0413 32.2145 10.6281C32.019 10.3526 31.7419 10.2149 31.3833 10.2149Q31.2324 10.2149 31.0898 10.2494Q30.7243 10.3378 30.4135 10.6529C30.1256 10.9449 29.9028 11.3829 29.7453 11.9669Q29.5089 12.843 29.5089 14.1322C29.5089 15.3664 29.691 16.4022 30.055 17.2397C30.419 18.0771 30.9161 18.7052 31.5463 19.124Q31.8488 19.3249 32.1779 19.4616Q32.8775 19.7521 33.6977 19.7521C34.5018 19.7521 35.1755 19.6336 35.7188 19.3967C36.262 19.1598 36.6804 18.7603 36.9737 18.1983C37.1367 18.0441 37.2644 17.9449 37.3568 17.9008C37.4491 17.8568 37.5388 17.8347 37.6257 17.8347C37.7344 17.8457 37.824 17.8981 37.8946 17.9917C37.9558 18.0729 37.9864 18.1934 37.9864 18.3532C37.9864 18.3778 37.9857 18.4033 37.9843 18.4298C37.8973 19.5096 37.5659 20.4628 36.99 21.2893C36.4142 22.1157 35.6373 22.7658 34.6593 23.2397ZM51.2269 22.9091C50.0045 23.5813 48.5838 23.9174 46.9648 23.9174Q44.6015 23.9174 42.8168 22.9339Q41.8107 22.3794 41.0557 21.586Q40.4716 20.972 40.0379 20.2149Q40.0056 20.1584 39.9743 20.1014Q39.0437 18.4052 39.0437 16.1983Q39.0437 14.5693 39.6252 13.1844Q39.8225 12.7145 40.0868 12.2727C40.7822 11.1102 41.7438 10.1873 42.9717 9.50413Q43.0118 9.48179 43.0522 9.45994Q44.8656 8.47934 47.2093 8.47934Q49.5889 8.47934 51.3655 9.47107C52.5499 10.1322 53.4734 11.0468 54.1362 12.2149C54.7991 13.3829 55.1305 14.7328 55.1305 16.2645C55.1305 17.719 54.7855 19.022 54.0955 20.1736C53.4055 21.3251 52.4493 22.2369 51.2269 22.9091ZM48.2035 22.1983C47.8667 22.2645 47.538 22.1157 47.2175 21.7521C46.8969 21.3884 46.5927 20.7769 46.3047 19.9174Q45.8728 18.6281 45.4817 16.5289C45.2317 15.1295 45.0905 13.978 45.0579 13.0744C45.0525 12.9238 45.0497 12.7793 45.0497 12.6409Q45.0497 11.6033 45.2535 11.0248C45.4165 10.562 45.6664 10.292 46.0032 10.2149C46.34 10.1488 46.6687 10.2975 46.9893 10.6612C47.3098 11.0248 47.6168 11.6364 47.9102 12.4959C48.2035 13.3554 48.4806 14.4848 48.7414 15.8843C49.0022 17.2837 49.1461 18.438 49.1733 19.3471C49.1771 19.4734 49.179 19.5953 49.179 19.713C49.179 20.4424 49.1064 21.0064 48.9614 21.405C48.793 21.8678 48.5404 22.1322 48.2035 22.1983ZM66.7514 22.8595C66.7514 23.3664 66.4961 23.6198 65.9854 23.6198L56.9885 23.6198C56.7712 23.6198 56.5946 23.5565 56.4588 23.4298C56.323 23.303 56.2551 23.124 56.2551 22.8926C56.2551 22.6942 56.3013 22.5344 56.3936 22.4132C56.486 22.292 56.6299 22.1928 56.8255 22.1157L57.5264 21.9008Q57.6559 21.8598 57.7573 21.782Q57.86 21.7032 57.9338 21.5868C58.0316 21.4325 58.0805 21.2121 58.0805 20.9256L58.0805 11.3719C58.0805 11.2176 58.0425 11.0882 57.9664 10.9835C57.8904 10.8788 57.7491 10.7824 57.5427 10.6942L56.5974 10.3802C56.3474 10.259 56.1682 10.1295 56.0595 9.99174Q56.0231 9.94557 55.9948 9.89487Q55.8965 9.71865 55.8965 9.4876C55.8965 9.28926 55.9644 9.12672 56.1002 9L56.1536 8.95545C56.2837 8.85843 56.4534 8.80992 56.6625 8.80992L58.0928 8.80992L58.0815 8.71333C58.051 8.52015 57.9746 8.33471 57.8523 8.15702C57.6894 7.92011 57.5046 7.65289 57.2982 7.35537Q56.9885 6.90909 56.744 6.28926Q56.4996 5.66942 56.4996 4.76033Q56.4996 3.3597 57.1133 2.32215Q57.4484 1.75573 57.9664 1.29752C58.9444 0.432507 60.3352 0 62.1389 0C63.3015 0 64.2659 0.187328 65.0319 0.561983C65.798 0.93664 66.3711 1.43526 66.7514 2.05785C67.1317 2.68044 67.3219 3.36088 67.3219 4.09917Q67.3219 5.35881 66.6925 6.01088Q66.6694 6.03477 66.6455 6.05785C66.1945 6.49311 65.616 6.71074 64.9097 6.71074C64.1273 6.71074 63.4971 6.4573 63.019 5.95041C62.5409 5.44353 62.3019 4.77135 62.3019 3.93388L62.3019 2.46281Q62.3019 1.8843 62.0737 1.61157C61.9216 1.42975 61.688 1.33884 61.3729 1.33884C60.9708 1.33884 60.6666 1.47658 60.4601 1.75207C60.2537 2.02755 60.1505 2.42424 60.1505 2.94215C60.1505 3.47108 60.2727 3.96694 60.5172 4.42975Q60.5206 4.43626 60.5241 4.44276Q60.8889 5.12962 61.4218 5.72727C61.7803 6.12948 62.1389 6.51515 62.4975 6.8843Q63.0353 7.43802 63.402 7.97521L63.4717 8.08256Q63.6698 8.40438 63.7358 8.72322L63.7507 8.80992L66.1647 8.80992Q66.5395 8.80992 66.7433 8.96694C66.8791 9.07162 66.947 9.23416 66.947 9.45454C66.947 9.78512 66.8058 10.0551 66.5232 10.2645C66.2407 10.4738 65.7952 10.5785 65.1868 10.5785L64.0295 10.5785L64.0295 20.876C64.0295 21.1846 64.0757 21.4215 64.1681 21.5868C64.2604 21.7521 64.4099 21.8512 64.6163 21.8843L66.018 22.0992C66.2679 22.1322 66.4526 22.2121 66.5721 22.3388C66.6917 22.4656 66.7514 22.6391 66.7514 22.8595ZM78.1279 22.8595C78.1279 23.3664 77.8726 23.6198 77.3619 23.6198L68.365 23.6198C68.1477 23.6198 67.9711 23.5565 67.8353 23.4298C67.6995 23.303 67.6316 23.124 67.6316 22.8926C67.6316 22.6942 67.6777 22.5344 67.7701 22.4132C67.8625 22.292 68.0064 22.1928 68.202 22.1157L68.9028 21.9008Q69.0324 21.8598 69.1338 21.782Q69.2365 21.7032 69.3103 21.5868C69.4081 21.4325 69.457 21.2121 69.457 20.9256L69.457 11.3719C69.457 11.2176 69.419 11.0882 69.3429 10.9835C69.2669 10.8788 69.1256 10.7824 68.9192 10.6942L67.9738 10.3802C67.7239 10.259 67.5446 10.1295 67.436 9.99174Q67.3996 9.94557 67.3713 9.89487Q67.273 9.71865 67.273 9.4876C67.273 9.28926 67.3409 9.12672 67.4767 9L67.5301 8.95545C67.6602 8.85843 67.8299 8.80992 68.039 8.80992L69.4692 8.80992L69.458 8.71333C69.4275 8.52015 69.3511 8.33471 69.2288 8.15702C69.0658 7.92011 68.8811 7.65289 68.6747 7.35537Q68.365 6.90909 68.1205 6.28926Q67.876 5.66942 67.876 4.76033Q67.876 3.3597 68.4898 2.32215Q68.8249 1.75573 69.3429 1.29752C70.3208 0.432507 71.7117 0 73.5154 0C74.678 0 75.6423 0.187328 76.4084 0.561983C77.1744 0.93664 77.7476 1.43526 78.1279 2.05785C78.5082 2.68044 78.6984 3.36088 78.6984 4.09917C78.6984 4.9697 78.4729 5.62259 78.022 6.05785C77.571 6.49311 76.9924 6.71074 76.2861 6.71074C75.5038 6.71074 74.8736 6.4573 74.3955 5.95041C73.9174 5.44353 73.6784 4.77135 73.6784 3.93388L73.6784 2.46281Q73.6784 1.8843 73.4502 1.61157C73.2981 1.42975 73.0644 1.33884 72.7493 1.33884C72.3473 1.33884 72.0431 1.47658 71.8366 1.75207C71.6302 2.02755 71.5269 2.42424 71.5269 2.94215C71.5269 3.47108 71.6492 3.96694 71.8937 4.42975Q71.8971 4.43622 71.9005 4.44268Q72.2654 5.12959 72.7982 5.72727C73.1568 6.12948 73.5154 6.51515 73.8739 6.8843Q74.4118 7.43802 74.7785 7.97521L74.8482 8.08256Q75.0462 8.40438 75.1122 8.72322L75.1271 8.80992L77.5412 8.80992Q77.916 8.80992 78.1198 8.96694C78.2556 9.07162 78.3235 9.23416 78.3235 9.45454C78.3235 9.78512 78.1822 10.0551 77.8997 10.2645C77.6172 10.4738 77.1717 10.5785 76.5632 10.5785L75.406 10.5785L75.406 20.876C75.406 21.1846 75.4522 21.4215 75.5446 21.5868C75.6369 21.7521 75.7863 21.8512 75.9928 21.8843L77.3945 22.0992C77.6444 22.1322 77.8291 22.2121 77.9486 22.3388C78.0681 22.4656 78.1279 22.6391 78.1279 22.8595ZM90.1237 23.1405C89.0697 23.6804 87.8528 23.9504 86.4728 23.9504C84.9516 23.9504 83.6151 23.6336 82.4633 23C81.3116 22.3664 80.4124 21.4793 79.7659 20.3388C79.1194 19.1983 78.7961 17.8788 78.7961 16.3802C78.7961 14.8044 79.1085 13.4242 79.7333 12.2397C80.3581 11.0551 81.2627 10.1322 82.4471 9.47107C83.6314 8.80992 85.0548 8.47934 86.7173 8.47934C88.1299 8.47934 89.3468 8.75758 90.3682 9.31405C91.3896 9.87052 92.1747 10.6253 92.7234 11.5785Q92.9516 11.9749 93.1165 12.3961Q93.5464 13.494 93.5464 14.7603C93.5464 15.2672 93.4106 15.6667 93.139 15.9587L93.0742 16.0235C92.8065 16.2723 92.4369 16.3967 91.9655 16.3967L84.5147 16.3967L84.5307 16.4729C84.7284 17.3804 85.0661 18.1071 85.5438 18.6529C86.3587 19.584 87.4453 20.0496 88.8035 20.0496C89.6728 20.0496 90.4416 19.8512 91.1098 19.4545C91.778 19.0578 92.2263 18.5069 92.4544 17.8017C92.5848 17.6584 92.7016 17.562 92.8049 17.5124C92.9081 17.4628 92.9977 17.438 93.0738 17.438C93.1824 17.438 93.2748 17.4821 93.3509 17.5702C93.4269 17.6584 93.465 17.8072 93.465 18.0165C93.465 19.0964 93.1716 20.0854 92.5848 20.9835C91.9981 21.8815 91.1777 22.6006 90.1237 23.1405ZM84.3447 15.0717Q84.3214 14.6914 84.3214 14.281C84.3214 13.2452 84.3975 12.4298 84.5496 11.8347C84.7017 11.2397 84.8973 10.8182 85.1363 10.5702C85.3754 10.3223 85.6416 10.1983 85.935 10.1983C86.3153 10.1983 86.6711 10.5234 87.0025 11.1736Q87.4996 12.1488 87.4996 14.4132C87.4996 14.876 87.2932 15.1074 86.8803 15.1074L84.3467 15.1074L84.3447 15.0717ZM105.705 23.1405C104.651 23.6804 103.434 23.9504 102.054 23.9504C100.533 23.9504 99.1967 23.6336 98.0449 23C96.8931 22.3664 95.994 21.4793 95.3474 20.3388C94.7009 19.1983 94.3777 17.8788 94.3777 16.3802C94.3777 14.8044 94.6901 13.4242 95.3148 12.2397C95.9396 11.0551 96.8442 10.1322 98.0286 9.47107C99.213 8.80992 100.636 8.47934 102.299 8.47934C103.711 8.47934 104.928 8.75758 105.95 9.31405C106.971 9.87052 107.756 10.6253 108.305 11.5785C108.854 12.5317 109.128 13.5923 109.128 14.7603C109.128 15.2672 108.992 15.6667 108.721 15.9587L108.656 16.0235C108.388 16.2723 108.018 16.3967 107.547 16.3967L100.096 16.3967L100.112 16.4729C100.31 17.3804 100.648 18.1071 101.125 18.6529Q101.572 19.1628 102.126 19.4865Q103.091 20.0496 104.385 20.0496C105.254 20.0496 106.023 19.8512 106.691 19.4545C107.36 19.0578 107.808 18.5069 108.036 17.8017C108.166 17.6584 108.283 17.562 108.386 17.5124C108.49 17.4628 108.579 17.438 108.655 17.438C108.764 17.438 108.856 17.4821 108.932 17.5702C109.008 17.6584 109.046 17.8072 109.046 18.0165C109.046 19.0964 108.753 20.0854 108.166 20.9835C107.58 21.8815 106.759 22.6006 105.705 23.1405ZM99.9262 15.0717Q99.9029 14.6914 99.9029 14.281C99.9029 13.2452 99.979 12.4298 100.131 11.8347C100.283 11.2397 100.479 10.8182 100.718 10.5702Q100.988 10.2904 101.304 10.2211Q101.408 10.1983 101.517 10.1983C101.897 10.1983 102.253 10.5234 102.584 11.1736C102.915 11.8237 103.081 12.9036 103.081 14.4132Q103.081 14.7998 102.889 14.9711Q102.736 15.1074 102.462 15.1074L99.9283 15.1074L99.9262 15.0717ZM119.6 23.4132C119.464 23.551 119.266 23.6198 119.005 23.6198L110.856 23.6198C110.617 23.6198 110.429 23.5537 110.293 23.4215C110.158 23.2893 110.09 23.1074 110.09 22.876C110.09 22.6997 110.13 22.5537 110.212 22.438Q110.334 22.2645 110.546 22.1157L110.921 21.9669Q111.033 21.9142 111.109 21.8288Q111.176 21.7535 111.214 21.6529C111.269 21.5096 111.296 21.2727 111.296 20.9421L111.296 12.5455C111.296 12.281 111.266 12.0909 111.206 11.9752C111.146 11.8595 111.046 11.7686 110.905 11.7025L110.481 11.6529C110.329 11.5647 110.217 11.4711 110.147 11.3719C110.076 11.2727 110.041 11.146 110.041 10.9917C110.041 10.8154 110.095 10.6584 110.204 10.5207C110.312 10.3829 110.497 10.2645 110.758 10.1653L115.387 8.82645C115.658 8.71625 115.887 8.63912 116.071 8.59504Q116.348 8.52893 116.544 8.52893C116.729 8.52893 116.867 8.59504 116.959 8.72727L116.989 8.77523C117.065 8.91344 117.118 9.13437 117.147 9.43801L117.271 12.0064L117.299 11.9116C117.354 11.7327 117.415 11.5611 117.481 11.3967C117.878 10.4105 118.402 9.67768 119.054 9.19835Q119.662 8.751 120.34 8.58198Q120.752 8.47934 121.189 8.47934C122.123 8.47934 122.841 8.79339 123.34 9.42149C123.84 10.0496 124.09 11.0028 124.09 12.281Q124.09 14.1818 123.308 15.0744C122.786 15.6694 122.113 15.9669 121.287 15.9669Q120.098 15.9669 119.519 15.3727Q119.51 15.3641 119.502 15.3554C119.116 14.9477 118.913 14.3691 118.891 13.6198L118.875 12.9587C118.864 12.7052 118.815 12.5069 118.728 12.3636C118.641 12.2204 118.5 12.1488 118.304 12.1488C118.109 12.1488 117.937 12.2507 117.791 12.4545C117.644 12.6584 117.533 12.9697 117.457 13.3884Q117.342 14.0165 117.342 14.9917L117.342 20.8099C117.342 21.1185 117.391 21.3636 117.489 21.5455C117.587 21.7273 117.739 21.8402 117.946 21.8843L119.168 22.1322Q119.49 22.1789 119.639 22.3643Q119.648 22.3761 119.657 22.3884Q119.69 22.4354 119.716 22.4862Q119.804 22.6589 119.804 22.876C119.804 23.0964 119.736 23.2755 119.6 23.4132ZM136.893 22.9091C135.67 23.5813 134.25 23.9174 132.631 23.9174C131.055 23.9174 129.672 23.5895 128.483 22.9339Q127.477 22.3794 126.722 21.586Q126.137 20.972 125.704 20.2149Q125.671 20.1585 125.64 20.1015Q124.71 18.4052 124.71 16.1983C124.71 14.7438 125.057 13.4353 125.753 12.2727C126.448 11.1102 127.41 10.1873 128.637 9.50413Q128.678 9.48177 128.718 9.4599Q130.532 8.47934 132.875 8.47934C134.462 8.47934 135.847 8.80992 137.031 9.47107C138.216 10.1322 139.139 11.0468 139.802 12.2149Q139.827 12.2596 139.852 12.3046Q140.796 14.0255 140.796 16.2645C140.796 17.719 140.451 19.022 139.761 20.1736C139.071 21.3251 138.115 22.2369 136.893 22.9091ZM133.869 22.1983C133.533 22.2645 133.204 22.1157 132.883 21.7521C132.563 21.3884 132.259 20.7769 131.971 19.9174Q131.539 18.6281 131.147 16.5289C130.898 15.1295 130.756 13.978 130.724 13.0744Q130.716 12.8485 130.716 12.641C130.716 11.9492 130.783 11.4105 130.919 11.0248C131.082 10.562 131.332 10.292 131.669 10.2149C132.006 10.1488 132.335 10.2975 132.655 10.6612C132.976 11.0248 133.283 11.6364 133.576 12.4959Q134.016 13.7851 134.407 15.8843C134.668 17.2837 134.812 18.438 134.839 19.3471C134.843 19.4734 134.845 19.5953 134.845 19.713C134.845 20.4424 134.772 21.0064 134.627 21.405C134.459 21.8678 134.206 22.1322 133.869 22.1983ZM155.97 23.4463C155.384 23.7824 154.634 23.9504 153.721 23.9504C152.624 23.9504 151.773 23.7163 151.17 23.2479L151.067 23.1642C150.733 22.8813 150.504 22.5612 150.379 22.2039L150.355 22.1299L150.332 22.1586C149.935 22.6493 149.418 23.0455 148.783 23.3471C147.935 23.7493 147.022 23.9504 146.044 23.9504Q144.286 23.9504 143.153 23.1082Q143.026 23.0139 142.907 22.9091C142.119 22.2149 141.725 21.3278 141.725 20.2479C141.725 18.8264 142.299 17.719 143.445 16.9256C144.591 16.1322 146.332 15.7355 148.669 15.7355L148.844 15.7373C149.189 15.7446 149.493 15.7735 149.755 15.8241L149.842 15.843L149.842 11.0248C149.842 10.6391 149.752 10.3333 149.573 10.1074C149.394 9.88154 149.152 9.76859 148.848 9.76859C148.565 9.76859 148.329 9.85399 148.139 10.0248C147.949 10.1956 147.854 10.4353 147.854 10.7438L147.854 12Q147.854 12.781 147.521 13.3767Q147.333 13.7139 147.039 13.9917C146.495 14.5041 145.751 14.7603 144.806 14.7603Q143.649 14.7603 143.037 14.2066C142.63 13.8375 142.426 13.3003 142.426 12.595Q142.426 12.5352 142.429 12.4755Q142.476 11.546 143.249 10.6529C143.798 10.0193 144.618 9.49862 145.71 9.09091C146.802 8.6832 148.163 8.47934 149.793 8.47934Q152.939 8.47934 154.414 9.67768C155.397 10.4766 155.889 11.6033 155.889 13.0578L155.889 20.3636C155.889 20.573 155.935 20.741 156.027 20.8678C156.12 20.9945 156.258 21.0578 156.443 21.0578Q156.51 21.0578 156.574 21.0443Q156.697 21.0183 156.81 20.9421C156.924 20.865 157.008 20.7273 157.062 20.5289C157.095 20.4848 157.133 20.4518 157.176 20.4298C157.22 20.4077 157.269 20.3967 157.323 20.3967Q157.395 20.3967 157.455 20.4234Q157.545 20.4631 157.608 20.562C157.679 20.6722 157.714 20.8099 157.714 20.9752C157.714 21.3609 157.57 21.7851 157.282 22.2479C156.994 22.7107 156.557 23.1102 155.97 23.4463ZM149.158 21.3719C148.723 21.3719 148.372 21.1928 148.106 20.8347C147.84 20.4766 147.707 19.9284 147.707 19.1901C147.707 18.4187 147.835 17.8347 148.09 17.438C148.345 17.0413 148.685 16.843 149.109 16.843C149.359 16.843 149.576 16.8678 149.761 16.9174L149.842 16.9422L149.842 21.1837L149.789 21.2137C149.615 21.3041 149.436 21.3558 149.251 21.3687L149.158 21.3719ZM169.661 22.6612C168.629 23.5537 167.146 24 165.212 24Q164.234 24 163.59 23.8182C163.161 23.697 162.813 23.5758 162.547 23.4545C162.281 23.3333 162.066 23.2727 161.903 23.2727C161.74 23.2727 161.525 23.3333 161.259 23.4545L160.461 23.8182Q160.061 24 159.784 24C159.621 24 159.469 23.9449 159.328 23.8347C159.187 23.7245 159.078 23.5041 159.002 23.1736L158.497 19.8843C158.438 19.6331 158.409 19.4056 158.409 19.202C158.409 19.0662 158.422 18.9411 158.448 18.8264C158.513 18.5399 158.66 18.3526 158.888 18.2645C159.127 18.1543 159.363 18.1488 159.597 18.2479C159.83 18.3471 160.04 18.5234 160.224 18.7769C160.844 19.7355 161.403 20.4904 161.903 21.0413C162.403 21.5923 162.889 21.9807 163.362 22.2066C163.834 22.4325 164.332 22.5455 164.853 22.5455C165.407 22.5455 165.82 22.4132 166.092 22.1488C166.363 21.8843 166.499 21.5482 166.499 21.1405C166.499 20.832 166.421 20.551 166.263 20.2975C166.105 20.0441 165.817 19.8099 165.399 19.595C164.981 19.3802 164.38 19.168 163.598 18.9587C162.392 18.6501 161.392 18.2479 160.599 17.7521C159.806 17.2562 159.217 16.6612 158.831 15.9669C158.445 15.2727 158.252 14.4628 158.252 13.5372C158.252 12.4904 158.51 11.5895 159.026 10.8347C159.542 10.0799 160.249 9.49862 161.145 9.09091Q162.49 8.47934 164.169 8.47934C164.842 8.47934 165.391 8.54545 165.815 8.67768C166.239 8.80992 166.567 8.94215 166.801 9.07438C167.034 9.20661 167.211 9.27273 167.331 9.27273C167.461 9.27273 167.654 9.20937 167.909 9.08265C168.164 8.95592 168.423 8.83195 168.683 8.71074Q169.074 8.52893 169.335 8.52893C169.531 8.52893 169.688 8.59504 169.808 8.72727C169.927 8.8595 170.009 9.0854 170.052 9.40496L170.476 12.4463C170.521 12.7034 170.543 12.9258 170.543 13.1136C170.543 13.2477 170.531 13.3641 170.509 13.4628C170.454 13.6997 170.313 13.8512 170.085 13.9174Q170.053 13.9251 170.02 13.9295Q169.772 13.9633 169.498 13.8099C169.292 13.6942 169.085 13.5096 168.879 13.2562C168.086 12.0551 167.36 11.2066 166.703 10.7107C166.046 10.2149 165.348 9.96694 164.609 9.96694Q163.81 9.96694 163.403 10.314C163.131 10.5455 162.995 10.8485 162.995 11.2231C162.995 11.4766 163.055 11.7135 163.174 11.9339Q163.354 12.2645 163.834 12.5537C164.155 12.7466 164.609 12.9366 165.195 13.124C166.771 13.6088 167.993 14.124 168.863 14.6694C169.732 15.2149 170.34 15.8402 170.688 16.5455C171.036 17.2507 171.21 18.0716 171.21 19.0083C171.21 20.551 170.694 21.7686 169.661 22.6612ZM180.663 23.3802Q179.587 23.9504 178.12 23.9504C176.469 23.9504 175.227 23.5482 174.396 22.7438C173.565 21.9394 173.149 20.6722 173.149 18.9422L173.149 11.4711C173.149 11.2397 173.127 11.0634 173.084 10.9421C173.041 10.8209 172.932 10.7218 172.758 10.6446L171.992 10.3967C171.807 10.3085 171.688 10.2011 171.633 10.0744C171.579 9.94766 171.552 9.79063 171.552 9.60331C171.552 9.3719 171.633 9.18182 171.796 9.03306C171.959 8.8843 172.16 8.80992 172.399 8.80992L173.198 8.80992Q173.345 8.80992 173.508 8.69421C173.616 8.61708 173.763 8.46281 173.948 8.23141L176.963 5.70248Q177.289 5.30579 177.615 5.09917Q177.941 4.89256 178.267 4.89256C178.517 4.89256 178.712 4.9697 178.854 5.12397L178.898 5.17866C179.01 5.3332 179.066 5.55739 179.066 5.85124L179.065 8.80992L182.472 8.80992C182.711 8.80992 182.896 8.86226 183.026 8.96694C183.157 9.07162 183.222 9.23416 183.222 9.45455C183.222 9.76308 183.086 10.0275 182.814 10.2479L182.754 10.2935C182.48 10.4835 182.065 10.5785 181.51 10.5785L179.065 10.5785L179.066 18.1157C179.066 18.9422 179.204 19.5537 179.481 19.9504C179.758 20.3471 180.163 20.5455 180.695 20.5455C180.924 20.5455 181.136 20.4959 181.331 20.3967C181.527 20.2975 181.703 20.168 181.861 20.0083C182.018 19.8485 182.168 19.6694 182.309 19.4711C182.45 19.2727 182.586 19.0744 182.717 18.876C182.825 18.832 182.92 18.8512 183.002 18.9339C183.074 19.0068 183.11 19.1462 183.11 19.3521C183.11 19.3796 183.109 19.4082 183.108 19.438C183.032 20.3306 182.784 21.1157 182.366 21.7934C181.948 22.4711 181.38 23 180.663 23.3802ZM194.989 23.1405C193.935 23.6804 192.718 23.9504 191.339 23.9504C189.817 23.9504 188.481 23.6336 187.329 23C186.177 22.3664 185.278 21.4793 184.632 20.3388C183.985 19.1983 183.662 17.8788 183.662 16.3802Q183.662 14.0165 184.599 12.2397C185.224 11.0551 186.128 10.1322 187.313 9.47107Q189.089 8.47934 191.583 8.47934C192.996 8.47934 194.212 8.75758 195.234 9.31405Q196.288 9.88843 197.007 10.7446Q197.332 11.1326 197.589 11.5785C198.138 12.5317 198.412 13.5923 198.412 14.7603C198.412 15.2672 198.276 15.6667 198.005 15.9587L197.94 16.0235C197.672 16.2723 197.303 16.3967 196.831 16.3967L189.38 16.3967L189.396 16.4729C189.594 17.3804 189.932 18.1071 190.409 18.6529Q190.856 19.1628 191.411 19.4865Q192.376 20.0496 193.669 20.0496C194.538 20.0496 195.307 19.8512 195.975 19.4545C196.644 19.0578 197.092 18.5069 197.32 17.8017C197.451 17.6584 197.567 17.562 197.671 17.5124C197.774 17.4628 197.863 17.438 197.939 17.438C198.048 17.438 198.14 17.4821 198.217 17.5702C198.293 17.6584 198.331 17.8072 198.331 18.0165C198.331 19.0964 198.037 20.0854 197.451 20.9835C196.864 21.8815 196.043 22.6006 194.989 23.1405ZM189.21 15.0717Q189.187 14.6914 189.187 14.281C189.187 13.2452 189.263 12.4298 189.415 11.8347C189.567 11.2397 189.763 10.8182 190.002 10.5702C190.241 10.3223 190.507 10.1983 190.801 10.1983C191.181 10.1983 191.537 10.5234 191.868 11.1736C192.2 11.8237 192.365 12.9036 192.365 14.4132C192.365 14.876 192.159 15.1074 191.746 15.1074L189.212 15.1074L189.21 15.0717ZM208.884 23.4132C208.748 23.551 208.55 23.6198 208.289 23.6198L200.14 23.6198C199.901 23.6198 199.713 23.5537 199.577 23.4215C199.442 23.2893 199.374 23.1074 199.374 22.876C199.374 22.6997 199.414 22.5537 199.496 22.438Q199.618 22.2645 199.83 22.1157L200.205 21.9669Q200.318 21.9142 200.393 21.8289Q200.46 21.7536 200.498 21.6529C200.553 21.5096 200.58 21.2727 200.58 20.9421L200.58 12.5455C200.58 12.281 200.55 12.0909 200.49 11.9752Q200.482 11.9587 200.472 11.9428Q200.38 11.7922 200.189 11.7025L199.765 11.6529C199.613 11.5647 199.501 11.4711 199.431 11.3719C199.36 11.2727 199.325 11.146 199.325 10.9917C199.325 10.8154 199.379 10.6584 199.488 10.5207C199.596 10.3829 199.781 10.2645 200.042 10.1653L204.671 8.82645Q205.078 8.66116 205.355 8.59504C205.54 8.55096 205.698 8.52893 205.828 8.52893C206.013 8.52893 206.151 8.59504 206.244 8.72727L206.273 8.77523C206.349 8.91344 206.402 9.13437 206.431 9.43801L206.555 12.0069L206.583 11.9116C206.638 11.7327 206.699 11.5611 206.765 11.3967Q207.36 9.91735 208.338 9.19835C208.99 8.71901 209.702 8.47934 210.473 8.47934C211.408 8.47934 212.125 8.79339 212.625 9.42149C213.124 10.0496 213.374 11.0028 213.374 12.281C213.374 13.5482 213.114 14.4793 212.592 15.0744C212.07 15.6694 211.397 15.9669 210.571 15.9669C209.767 15.9669 209.172 15.7631 208.786 15.3554C208.4 14.9477 208.197 14.3691 208.175 13.6198L208.159 12.9587C208.148 12.7052 208.099 12.5069 208.012 12.3636C207.925 12.2204 207.784 12.1488 207.588 12.1488C207.393 12.1488 207.222 12.2507 207.075 12.4545C206.928 12.6584 206.817 12.9697 206.741 13.3884C206.665 13.8072 206.627 14.3416 206.627 14.9917L206.627 20.8099C206.627 21.1185 206.676 21.3636 206.773 21.5455C206.871 21.7273 207.023 21.8402 207.23 21.8843L208.452 22.1322C208.68 22.1653 208.843 22.2507 208.941 22.3884C209.039 22.5262 209.088 22.6887 209.088 22.876C209.088 23.0964 209.02 23.2755 208.884 23.4132ZM225.452 22.6612C224.419 23.5537 222.936 24 221.002 24Q220.024 24 219.38 23.8182C218.951 23.697 218.603 23.5758 218.337 23.4545C218.071 23.3333 217.856 23.2727 217.693 23.2727C217.53 23.2727 217.316 23.3333 217.05 23.4545L216.251 23.8182Q215.852 24 215.575 24C215.412 24 215.26 23.9449 215.118 23.8347C214.977 23.7245 214.868 23.5041 214.792 23.1736L214.287 19.8843C214.228 19.6331 214.199 19.4056 214.199 19.202C214.199 19.0662 214.212 18.9411 214.238 18.8264C214.303 18.5399 214.45 18.3526 214.678 18.2645C214.917 18.1543 215.154 18.1488 215.387 18.2479C215.621 18.3471 215.83 18.5234 216.015 18.7769C216.634 19.7355 217.194 20.4904 217.693 21.0413C218.193 21.5923 218.68 21.9807 219.152 22.2066C219.625 22.4325 220.122 22.5455 220.644 22.5455C221.198 22.5455 221.611 22.4132 221.882 22.1488C222.154 21.8843 222.29 21.5482 222.29 21.1405C222.29 20.832 222.211 20.551 222.053 20.2975C221.896 20.0441 221.608 19.8099 221.19 19.595C220.771 19.3802 220.171 19.168 219.389 18.9587C218.182 18.6501 217.183 18.2479 216.39 17.7521C215.596 17.2562 215.007 16.6612 214.621 15.9669C214.235 15.2727 214.043 14.4628 214.043 13.5372C214.043 12.4904 214.301 11.5895 214.817 10.8347C215.333 10.0799 216.039 9.49862 216.936 9.09091Q218.28 8.47934 219.959 8.47934C220.633 8.47934 221.181 8.54545 221.605 8.67768C222.029 8.80992 222.358 8.94215 222.591 9.07438C222.825 9.20661 223.001 9.27273 223.121 9.27273C223.251 9.27273 223.444 9.20937 223.7 9.08265C223.955 8.95592 224.213 8.83195 224.474 8.71074Q224.865 8.52893 225.126 8.52893C225.321 8.52893 225.479 8.59504 225.598 8.72727C225.718 8.8595 225.799 9.0854 225.843 9.40496L226.267 12.4463C226.311 12.7034 226.333 12.9258 226.333 13.1136C226.333 13.2477 226.322 13.3641 226.299 13.4628C226.245 13.6997 226.104 13.8512 225.875 13.9174Q225.843 13.9251 225.81 13.9295Q225.562 13.9633 225.289 13.8099C225.082 13.6942 224.876 13.5096 224.669 13.2562C223.876 12.0551 223.151 11.2066 222.493 10.7107C221.836 10.2149 221.138 9.96694 220.399 9.96694Q219.6 9.96694 219.193 10.314C218.921 10.5455 218.785 10.8485 218.785 11.2231C218.785 11.4766 218.845 11.7135 218.965 11.9339Q219.144 12.2645 219.625 12.5537C219.945 12.7466 220.399 12.9366 220.986 13.124C222.561 13.6088 223.784 14.124 224.653 14.6694C225.522 15.2149 226.131 15.8402 226.478 16.5455C226.826 17.2507 227 18.0716 227 19.0083C227 20.551 226.484 21.7686 225.452 22.6612Z" clip-rule="evenodd" fill="#555555" fill-opacity="1.000000" fill-rule="evenodd"/>
	<path id="Combined Shape" d="M13.4893 3.00268C9.97493 -0.508873 4.76554 -1.01438 1.87661 1.87766C-1.01382 4.76821 -0.508339 9.97779 3.00008 13.4908C3.93607 14.4269 5.01454 15.1424 6.15302 15.6554C6.5265 13.4848 7.59748 11.3983 9.22345 9.68528C8.68496 9.49328 8.13297 9.33128 7.55698 9.17377C4.14606 8.23776 2.4511 5.39222 2.05511 2.05617C3.01808 3.21418 3.72757 4.5387 4.90654 5.50922C6.16351 6.54424 7.54798 6.91924 9.06745 7.36025C9.75594 7.55975 10.3544 7.85526 10.9034 8.20026C12.3464 7.14574 13.9738 6.44373 15.6538 6.15423C15.1423 5.01571 14.4253 3.93869 13.4893 3.00268ZM7.54648 16.4894C7.76997 14.3158 8.82295 12.1903 10.5104 10.5028C14.0248 6.99124 19.2342 6.48423 22.1232 9.37778C25.0136 12.2683 24.5096 17.4779 20.9967 20.991C19.3092 22.6785 17.1838 23.7315 15.0103 23.9565C14.7208 23.985 14.4343 24 14.1538 24C12.2849 24 10.6154 23.3445 9.38544 22.1145C7.96947 20.7 7.31548 18.7019 7.54648 16.4894ZM16.4413 16.6754C15.0853 17.0459 13.8388 17.3939 12.6869 18.2729C11.3699 19.2794 10.6049 20.6834 9.56243 21.936C9.94343 18.6524 11.5934 15.8309 14.9308 14.8619C16.4518 14.4209 17.8347 14.0443 19.0917 13.0108C20.2722 12.0403 20.9817 10.7173 21.9432 9.55778C21.5457 12.8938 19.8522 15.7394 16.4413 16.6754Z" clip-rule="evenodd" fill="#0A775F" fill-opacity="1.000000" fill-rule="evenodd"/>
</svg>
